<svg width="20" height="20" viewBox="0 0 20 20" fill="none" xmlns="http://www.w3.org/2000/svg">
<path d="M1.72506 0.70863L0.810126 2.20953C0.810126 2.20953 -2.66456 6.96923 4.77826 14.4634C4.78854 14.4737 4.80396 14.484 4.81424 14.4994C4.82452 14.5097 4.8348 14.5251 4.85022 14.5354C12.3444 21.9782 17.1041 18.5035 17.1041 18.5035L18.605 17.5886C19.4634 16.941 19.556 15.6868 18.7952 14.9261L17.0065 13.1373C16.3845 12.5154 15.3976 12.4434 14.6934 12.9728L12.7916 14.191C12.7916 14.191 11.5117 14.9466 7.93426 11.3845C4.37219 7.80706 5.12778 6.52719 5.12778 6.52719L6.34598 4.62536C6.87541 3.92117 6.80344 2.93942 6.1815 2.31233L4.38761 0.518448C3.62688 -0.242282 2.36757 -0.154901 1.72506 0.70863Z" fill="white"/>
</svg>
