<svg width="21" height="21" viewBox="0 0 21 21" fill="none" xmlns="http://www.w3.org/2000/svg">
<g clip-path="url(#clip0)">
<path d="M20.4269 17.6428L15.6078 12.8237C14.8903 13.9383 13.9383 14.8903 12.8237 15.6078L17.6428 20.4269C18.4144 21.1985 19.6598 21.1985 20.4269 20.4269C21.1939 19.6553 21.1939 18.4099 20.4269 17.6428Z" fill="#00437A"/>
<path d="M15.7523 7.87838C15.7523 3.52407 12.2237 0 7.87387 0C3.52858 0 0 3.52407 0 7.87838C0 12.2282 3.52858 15.7523 7.87387 15.7523C12.2237 15.7523 15.7523 12.2237 15.7523 7.87838ZM7.87387 13.7849C4.61603 13.7849 1.96734 11.1362 1.96734 7.87838C1.96734 4.62054 4.61603 1.97185 7.87387 1.97185C11.1317 1.97185 13.7804 4.62054 13.7804 7.87838C13.7849 11.1317 11.1317 13.7849 7.87387 13.7849Z" fill="#00437A"/>
<path d="M3.28027 7.87825H4.59334C4.59334 6.06884 6.06433 4.59785 7.87374 4.59785V3.28027C5.34237 3.28027 3.28027 5.34237 3.28027 7.87825Z" fill="#00437A"/>
</g>
<defs>
<clipPath id="clip0">
<rect width="21" height="21" fill="white"/>
</clipPath>
</defs>
</svg>
